<svg id="Capa_1" data-name="Capa 1" xmlns="http://www.w3.org/2000/svg" xmlns:xlink="http://www.w3.org/1999/xlink" viewBox="0 0 1024 266.43"><defs><style>.cls-1{fill:#49bdea;}.cls-2{fill:#d6d6d6;}.cls-3{fill:#60bae7;}.cls-4,.cls-5{opacity:0.7;}.cls-4{fill:url(#linear-gradient);}.cls-5{fill:url(#linear-gradient-2);}</style><linearGradient id="linear-gradient" x1="3293.9" y1="421.36" x2="3299.75" y2="520.83" gradientTransform="translate(3479.25 561.25) rotate(180)" gradientUnits="userSpaceOnUse"><stop offset="0" stop-color="#3c3c3b" stop-opacity="0.2"/><stop offset="0.06" stop-color="#727272" stop-opacity="0.14"/><stop offset="0.31" stop-color="#e1e1e0" stop-opacity="0.03"/><stop offset="1" stop-color="#fff" stop-opacity="0"/></linearGradient><linearGradient id="linear-gradient-2" x1="-1160.53" y1="-372.12" x2="-1154.68" y2="-272.65" gradientTransform="translate(1223.75 498.75)" xlink:href="#linear-gradient"/></defs><title>Logotype-Edit</title><path class="cls-1" d="M276.26,147.84q0-22.92,11.2-35.1t32.24-12.2a87.81,87.81,0,0,1,15.6,1.47V65.92h22.59V165.7q0,13-9.77,22.31t-29.89,9.33a59.48,59.48,0,0,1-9.33-.73,41.66,41.66,0,0,1-21.63-12c-3.05-3.31-5.67-8.17-7.81-14.58A70.42,70.42,0,0,1,276.26,147.84Zm22.59-1.2q0,16.56,4.31,23.93T318.22,178q17.09,0,17.07-10.13V119.74a72.4,72.4,0,0,0-14.87-1.56q-10.56,0-16.08,6.31T298.85,146.64Z"/><path class="cls-1" d="M379.66,150q0-22.6,10-36.1t31.92-13.5q20.66,0,31.26,13.13t10.61,32.32c0,5.27-.11,9.16-0.39,11.67H402.24q0.92,12.21,7.31,16.35T426.11,178a74.28,74.28,0,0,0,32-7.26v18.19q-15.6,8.45-35.35,8.44a65.44,65.44,0,0,1-11.74-1,38.81,38.81,0,0,1-11.43-4.23,35.61,35.61,0,0,1-10.16-8.18q-4.25-5-7-13.72A68.08,68.08,0,0,1,379.66,150Zm22.58-8.09h37.84a32.44,32.44,0,0,0-5.75-16.3,15.48,15.48,0,0,0-13.27-6.66q-8.44,0-13.17,5.43T402.24,141.87Z"/><path class="cls-1" d="M473.32,102h24l23.5,71.26L544.41,102h24.22l-35.9,93.86h-23.5Z"/><path class="cls-1" d="M591.69,184.85Q580.22,172.36,580.22,149t11.47-35.82q11.49-12.49,32.93-12.49t32.9,12.49Q669,125.7,669,149t-11.5,35.82q-11.48,12.48-32.9,12.48T591.69,184.85Zm16.49-59.43q-5.37,6.16-5.36,23.66t5.36,23.59q5.37,6.12,16.48,6.11t16.44-6.11q5.31-6.09,5.33-23.59t-5.33-23.66q-5.33-6.14-16.44-6.15T608.18,125.42Z"/><path class="cls-1" d="M690.41,195.87v-85a95.52,95.52,0,0,1,43.06-10.29q19.67,0,30.72,10.25t11.08,28.7v56.38H752.68V137.54a24.81,24.81,0,0,0-.69-6.29,16,16,0,0,0-2.76-5.28q-2.07-2.76-6.74-4.13a44.11,44.11,0,0,0-12-1.37A98.73,98.73,0,0,0,713,122.12v73.74H690.41Z"/><path class="cls-2" d="M799.41,114.41V102h16.17V97a49.37,49.37,0,0,1,2.53-16.71q2.51-7,5.73-10.28a22.07,22.07,0,0,1,8.22-5.19,30.42,30.42,0,0,1,7.6-2.07c1.76-.11,3.83-0.18,6.21-0.18a33.74,33.74,0,0,1,9,1.1v12a35,35,0,0,0-6.8-.74,46.8,46.8,0,0,0-6.84.38,17.39,17.39,0,0,0-5.65,2.24q-3.3,1.89-4.88,6.71a42,42,0,0,0-1.54,12.54V102h25.71v12.4H829.18v81.46h-13.6V114.41H799.41Z"/><path class="cls-2" d="M868.92,102h14.25l24,72.64L928.72,102h12.9l21.89,72.7L987.4,102H1001l-31.25,93.86h-13L935,124.53,913.2,195.87h-13Z"/><polygon class="cls-2" points="23.16 132.96 89.79 117.77 106.58 171.92 92.76 221.07 73.67 221.07 23.16 132.96"/><polygon class="cls-2" points="23.16 132.96 89.79 117.77 128.26 94.4 142.18 45.4 73.67 45.4 23.16 132.96"/><polygon class="cls-3" points="225.57 133.26 158.96 148.41 142.15 94.28 155.98 45.13 175.06 45.13 225.57 133.26"/><polygon class="cls-3" points="225.57 133.26 158.96 148.41 120.38 172.12 106.54 220.82 175.06 220.82 225.57 133.26"/><polygon class="cls-4" points="142.09 94.4 155.9 45.21 175.02 45.21 225.57 133.41 158.88 148.59 142.09 94.4"/><polygon class="cls-5" points="106.49 172.12 92.65 221.31 73.56 221.31 23 133.12 89.68 117.93 106.49 172.12"/></svg>